<?xml version="1.0" encoding="UTF-8" standalone="no"?>
<!-- Created with Inkscape (http://www.inkscape.org/) -->

<svg
   width="250.78044mm"
   height="44.810028mm"
   viewBox="0 0 250.78044 44.810027"
   version="1.1"
   id="svg5"
   inkscape:version="1.2.1 (9c6d41e410, 2022-07-14)"
   sodipodi:docname="ligh.svg"
   inkscape:export-filename="ligh.png"
   inkscape:export-xdpi="210.75999"
   inkscape:export-ydpi="210.75999"
   xmlns:inkscape="http://www.inkscape.org/namespaces/inkscape"
   xmlns:sodipodi="http://sodipodi.sourceforge.net/DTD/sodipodi-0.dtd"
   xmlns="http://www.w3.org/2000/svg"
   xmlns:svg="http://www.w3.org/2000/svg">
  <sodipodi:namedview
     id="namedview7"
     pagecolor="#ffffff"
     bordercolor="#000000"
     borderopacity="0.25"
     inkscape:showpageshadow="2"
     inkscape:pageopacity="0.0"
     inkscape:pagecheckerboard="0"
     inkscape:deskcolor="#d1d1d1"
     inkscape:document-units="mm"
     showgrid="false"
     inkscape:zoom="1.0129245"
     inkscape:cx="471.40729"
     inkscape:cy="129.82211"
     inkscape:window-width="1920"
     inkscape:window-height="991"
     inkscape:window-x="-9"
     inkscape:window-y="-9"
     inkscape:window-maximized="1"
     inkscape:current-layer="layer1" />
  <defs
     id="defs2">
    <filter
       inkscape:collect="always"
       style="color-interpolation-filters:sRGB"
       id="filter2804"
       x="-0.009947521"
       y="-0.15212707"
       width="1.019895"
       height="1.3042541">
      <feGaussianBlur
         inkscape:collect="always"
         stdDeviation="0.91436076"
         id="feGaussianBlur2806" />
    </filter>
  </defs>
  <g
     inkscape:label="Livello 1"
     inkscape:groupmode="layer"
     id="layer1"
     transform="translate(-6.1031759,-40.387573)">
    <path
       style="fill:#ff0000;fill-opacity:0;stroke:#000000;stroke-width:1.49252"
       d=""
       id="path1245"
       transform="matrix(0.26458333,0,0,0.26458333,9.7258797,43.744042)" />
    <path
       style="fill:#ff0000;fill-opacity:0;stroke:#000000;stroke-width:1.49252"
       d=""
       id="path1247"
       transform="matrix(0.26458333,0,0,0.26458333,9.7258797,43.744042)" />
    <path
       style="fill:#ff0000;fill-opacity:0;stroke:#000000;stroke-width:1.49252"
       d=""
       id="path1249"
       transform="matrix(0.26458333,0,0,0.26458333,9.7258797,43.744042)" />
    <path
       style="fill:#ff0000;fill-opacity:0;stroke:#000000;stroke-width:1.49252"
       d=""
       id="path1251"
       transform="matrix(0.26458333,0,0,0.26458333,9.7258797,43.744042)" />
    <path
       style="fill:#ff0000;fill-opacity:0;stroke:#000000;stroke-width:1.49252"
       d=""
       id="path1253"
       transform="matrix(0.26458333,0,0,0.26458333,9.7258797,43.744042)" />
    <path
       style="fill:#ff0000;fill-opacity:0;stroke:#000000;stroke-width:1.49252"
       d=""
       id="path1255"
       transform="matrix(0.26458333,0,0,0.26458333,9.7258797,43.744042)" />
    <path
       style="fill:#ff0000;fill-opacity:0;stroke:#000000;stroke-width:1.49252"
       d=""
       id="path1265"
       transform="matrix(0.26458333,0,0,0.26458333,9.7258797,43.744042)" />
    <path
       style="fill:#ff0000;fill-opacity:0;stroke:#000000;stroke-width:1.49252"
       d=""
       id="path1267"
       transform="matrix(0.26458333,0,0,0.26458333,9.7258797,43.744042)" />
    <path
       style="fill:#ff0000;fill-opacity:0;stroke:#000000;stroke-width:1.49252"
       d=""
       id="path1269"
       transform="matrix(0.26458333,0,0,0.26458333,9.7258797,43.744042)" />
    <path
       style="fill:#ff0000;fill-opacity:0;stroke:#000000;stroke-width:1.49252"
       d=""
       id="path1271"
       transform="matrix(0.26458333,0,0,0.26458333,9.7258797,43.744042)" />
    <path
       style="fill:#ff0000;fill-opacity:0;stroke:#000000;stroke-width:1.49252"
       d=""
       id="path1281"
       transform="matrix(0.26458333,0,0,0.26458333,9.7258797,43.744042)" />
    <path
       style="fill:#ff0000;fill-opacity:0;stroke:#000000;stroke-width:1.49252"
       d=""
       id="path1285"
       transform="matrix(0.26458333,0,0,0.26458333,9.7258797,43.744042)" />
    <g
       id="g1903"
       inkscape:label="luceaccesa"
       transform="translate(0.19951079,0.07111668)"
       style="stroke-width:0.3;stroke-dasharray:none;fill:#ffffff;fill-opacity:0"
       inkscape:export-filename="light.png"
       inkscape:export-xdpi="210.75999"
       inkscape:export-ydpi="210.75999">
      <rect
         style="stroke-width:0.3;stroke-dasharray:none;fill:#ffffff;fill-opacity:1;mix-blend-mode:normal;stroke:#000000;filter:url(#filter2804)"
         id="rect1291"
         width="235.68343"
         height="15.411234"
         x="13.452179"
         y="44.144043" />
      <ellipse
         style="fill:#ffffff;fill-opacity:0;stroke:#000000;stroke-width:0.3;stroke-dasharray:none"
         id="path234"
         cx="13.452179"
         cy="51.849659"
         rx="3.5262992"
         ry="7.705617" />
      <ellipse
         style="fill:#ffffff;fill-opacity:0;stroke:#000000;stroke-width:0.3;stroke-dasharray:none"
         id="path234-4"
         cx="249.13562"
         cy="51.849659"
         rx="3.5262992"
         ry="7.705617" />
      <path
         style="fill:#ffffff;fill-opacity:0;stroke:#000000;stroke-width:1.13385828;stroke-dasharray:none"
         d="M 11.183199,57.717434 C 1.7340948,52.203814 -0.71486443,21.035012 7.2841165,8.092389 10.134478,3.4804075 13.812199,1.9115774 16.951483,3.9685157 27.982299,11.196184 29.171651,45.068827 18.760188,55.48029 c -3.413425,3.413425 -4.83951,3.834485 -7.576989,2.237144 z"
         id="path1215"
         transform="matrix(0.26458333,0,0,0.26458333,9.7258797,43.744042)" />
      <path
         style="fill:#ffffff;fill-opacity:0;stroke:#000000;stroke-width:1.13385828;stroke-dasharray:none"
         d="M 10.462759,55.04046 C 0.53983741,45.117539 2.2146052,8.6640948 12.763857,4.9541211 c 2.493947,-0.877074 3.061033,-0.6383229 5.541721,2.3331422 4.261837,5.1049927 6.183898,13.8019047 5.734335,25.9466197 -0.33292,8.99366 -0.742792,10.978048 -3.324661,16.096301 -1.619709,3.210884 -3.932478,6.465889 -5.139488,7.233344 -2.011228,1.278803 -2.438372,1.151565 -5.113005,-1.523068 z"
         id="path1217"
         transform="matrix(0.26458333,0,0,0.26458333,9.7258797,43.744042)" />
      <path
         style="fill:#ffffff;fill-opacity:0;stroke:#000000;stroke-width:1.13385828;stroke-dasharray:none"
         d="M 10.376781,52.637852 C 5.375786,44.513903 3.7644686,27.191893 6.9971631,16.30623 8.9515658,9.7250425 13.602365,4.5966344 15.89256,6.4973283 c 7.735852,6.4201867 9.388345,30.3485407 2.954223,42.7775987 -3.680523,7.109814 -5.675798,7.902017 -8.470002,3.362925 z"
         id="path1219"
         transform="matrix(0.26458333,0,0,0.26458333,9.7258797,43.744042)" />
      <path
         style="fill:#ffffff;fill-opacity:0;stroke:#000000;stroke-width:1.13385828;stroke-dasharray:none"
         d="M 10.37827,49.60883 C 4.8578341,37.096745 5.6443822,17.358157 11.967252,9.7329878 l 2.340285,-2.822305 1.969098,2.3194155 c 6.635445,7.8159357 6.538588,32.4371837 -0.164667,41.8595927 -1.062289,1.493201 -2.37042,2.714911 -2.906961,2.714911 -0.53654,0 -1.808572,-1.888097 -2.826737,-4.195772 z"
         id="path1221"
         transform="matrix(0.26458333,0,0,0.26458333,9.7258797,43.744042)" />
      <path
         style="fill:#ffffff;fill-opacity:0;stroke:#000000;stroke-width:1.13385828;stroke-dasharray:none"
         d="M 10.284186,44.873031 C 7.4193339,35.441129 7.8631209,19.935318 11.17997,13.574555 c 1.203347,-2.307674 2.572514,-4.1957712 3.042593,-4.1957712 1.438523,0 4.08529,6.5998072 5.21202,12.9963582 0.772003,4.38273 0.764949,8.211334 -0.02543,13.80025 -1.070521,7.569905 -4.206928,15.654729 -6.073055,15.654729 -0.516318,0 -1.889678,-3.13069 -3.051912,-6.95709 z"
         id="path1223"
         transform="matrix(0.26458333,0,0,0.26458333,9.7258797,43.744042)" />
      <path
         style="fill:#ffffff;fill-opacity:0;stroke:#000000;stroke-width:1.13385828;stroke-dasharray:none"
         d="M 12.501618,47.346895 C 8.9338102,39.516409 8.8177446,22.379123 12.281246,14.808606 l 1.806645,-3.948962 1.756645,3.948962 c 2.851679,6.410612 3.102762,19.609047 0.533927,28.066376 -1.16617,3.839362 -2.258341,6.980658 -2.427047,6.980658 -0.168705,0 -0.821114,-1.128935 -1.449798,-2.508745 z"
         id="path1225"
         transform="matrix(0.26458333,0,0,0.26458333,9.7258797,43.744042)" />
      <path
         style="fill:#ffffff;fill-opacity:0;stroke:#000000;stroke-width:1.13385828;stroke-dasharray:none"
         d="m 12.531763,42.754598 c -1.50042,-5.89849 -1.393662,-19.845735 0.19124,-24.984271 l 1.217997,-3.948961 1.361496,3.948961 c 1.729715,5.016963 1.608256,19.300241 -0.214075,25.17463 l -1.37816,4.442582 z"
         id="path1227"
         transform="matrix(0.26458333,0,0,0.26458333,9.7258797,43.744042)" />
      <path
         style="fill:#ffffff;fill-opacity:0;stroke:#000000;stroke-width:1.13385828;stroke-dasharray:none"
         d="m 13.02674,36.980678 c -0.818205,-7.559013 0.198428,-20.217293 1.380903,-17.193875 0.922502,2.358703 0.915301,16.606472 -0.01046,20.690053 -0.559539,2.468166 -0.787917,1.885546 -1.370447,-3.496178 z"
         id="path1229"
         transform="matrix(0.26458333,0,0,0.26458333,9.7258797,43.744042)" />
      <path
         style="fill:#ffffff;fill-opacity:0;stroke:#000000;stroke-width:1.13385828;stroke-dasharray:none"
         d="m 15.336961,40.048138 c -0.562086,-1.050267 -0.962617,-3.826881 -0.890067,-6.170252 l 0.131908,-4.260674 0.703903,4.442582 c 0.387147,2.44342 1.041706,5.220033 1.454576,6.170252 1.020287,2.348186 -0.125944,2.199286 -1.40032,-0.181908 z"
         id="path1231"
         transform="matrix(0.26458333,0,0,0.26458333,9.7258797,43.744042)" />
      <path
         style="fill:#ffffff;fill-opacity:0;stroke:#000000;stroke-width:1.13385828;stroke-dasharray:none"
         d="m 13.796938,39.983236 c 0.270098,-1.357455 0.534935,-4.245134 0.588527,-6.417062 l 0.09744,-3.948962 1.355071,5.429822 c 1.727312,6.921403 1.731567,7.39548 0.05387,6.00312 -1.063015,-0.882225 -1.524428,-0.852959 -1.985427,0.125927 -0.330315,0.701391 -0.379583,0.164611 -0.109486,-1.192845 z"
         id="path1233"
         transform="matrix(0.26458333,0,0,0.26458333,9.7258797,43.744042)" />
      <path
         style="fill:#ffffff;fill-opacity:0;stroke:#000000;stroke-width:1.13385828;stroke-dasharray:none"
         d="m 13.795165,30.578773 c 0.01585,-6.649567 0.416214,-10.993616 1.013441,-10.996091 0.56564,-0.0023 0.98724,2.982607 0.98724,6.989701 0,3.846585 0.368022,8.856901 0.817826,11.134036 0.728974,3.690435 0.61887,4.125259 -1.013442,4.002301 -1.667327,-0.125596 -1.828921,-1.121974 -1.805065,-11.129947 z"
         id="path1235"
         transform="matrix(0.26458333,0,0,0.26458333,9.7258797,43.744042)" />
      <path
         style="fill:#ffffff;fill-opacity:0;stroke:#000000;stroke-width:1.13385828;stroke-dasharray:none"
         d="m 901.45608,56.673003 c -5.25238,-4.131522 -8.50994,-14.257088 -8.48172,-26.363954 0.0283,-12.126106 3.45859,-21.9855305 9.11656,-26.2028402 2.71405,-2.0229899 2.71576,-2.0230085 5.42982,-0.059087 1.4932,1.0804971 4.01128,4.5387945 5.59574,7.6851052 2.46845,4.901688 2.94473,7.157386 3.32724,15.757991 0.66904,15.043068 -3.18536,27.350129 -9.46306,30.215504 -2.86676,1.308498 -2.4489,1.386609 -5.52458,-1.032719 z"
         id="path1237"
         transform="matrix(0.26458333,0,0,0.26458333,9.7258797,43.744042)" />
      <path
         style="fill:#ffffff;fill-opacity:0;stroke:#000000;stroke-width:1.13385828;stroke-dasharray:none"
         d="m 899.96991,52.799131 c -3.82882,-5.285537 -5.49068,-12.415062 -5.4036,-23.181919 0.0791,-9.775247 1.93888,-16.642823 5.94867,-21.9660989 3.00093,-3.9839454 5.51543,-4.0728484 8.20889,-0.2902352 4.77383,6.7042361 6.19933,11.7622421 6.25229,22.1847271 0.0581,11.42929 -1.88874,19.516553 -5.824,24.193343 -3.41985,4.064258 -5.72848,3.827966 -9.18225,-0.939817 z"
         id="path1239"
         transform="matrix(0.26458333,0,0,0.26458333,9.7258797,43.744042)" />
      <path
         style="fill:#ffffff;fill-opacity:0;stroke:#000000;stroke-width:1.13385828;stroke-dasharray:none"
         d="m 900.82157,51.583311 c -3.70493,-6.00142 -5.1485,-13.127863 -4.73659,-23.383064 0.32731,-8.149112 0.81042,-10.39345 3.31792,-15.413728 2.39546,-4.795973 3.38254,-5.8758362 5.37099,-5.8758362 1.9757,0 2.99416,1.091085 5.38839,5.7726302 2.4936,4.875843 3.01393,7.183297 3.34938,14.853116 0.84007,19.207581 -6.77239,33.632682 -12.69009,24.046882 z"
         id="path1241"
         transform="matrix(0.26458333,0,0,0.26458333,9.7258797,43.744042)" />
      <path
         style="fill:#ffffff;fill-opacity:0;stroke:#000000;stroke-width:1.13385828;stroke-dasharray:none"
         d="m 900.89856,48.950137 c -2.95454,-5.791389 -4.30228,-16.344249 -3.14964,-24.661865 1.03142,-7.442835 4.6784,-15.4031084 7.05691,-15.4031084 2.32617,0 5.9973,7.8615714 7.00982,15.0112714 1.74776,12.341439 -2.27075,28.920926 -7.00982,28.920926 -1.256,0 -2.62623,-1.356183 -3.90727,-3.867224 z"
         id="path1243"
         transform="matrix(0.26458333,0,0,0.26458333,9.7258797,43.744042)" />
      <path
         style="fill:#ffffff;fill-opacity:0;stroke:#000000;stroke-width:1.13385828;stroke-dasharray:none"
         d="m 902.42482,48.62159 c -4.34553,-6.706598 -4.69474,-25.103357 -0.63717,-33.566174 1.23661,-2.579165 2.59479,-4.689392 3.01818,-4.689392 2.01178,0 5.26302,9.749394 5.71496,17.137301 0.66731,10.908716 -2.37652,23.339556 -5.71496,23.339556 -0.51795,0 -1.5894,-0.999581 -2.38101,-2.221291 z"
         id="path1257"
         transform="matrix(0.26458333,0,0,0.26458333,9.7258797,43.744042)" />
      <path
         style="fill:#ffffff;fill-opacity:0;stroke:#000000;stroke-width:1.13385828;stroke-dasharray:none"
         d="m 902.72422,46.153489 c -3.38203,-8.78234 -3.23801,-21.868684 0.32867,-29.864022 l 1.98181,-4.442582 1.29594,2.961721 c 2.5307,5.783654 3.58735,15.425207 2.4623,22.467714 -1.81879,11.385151 -3.91954,14.458082 -6.06872,8.877169 z"
         id="path1259"
         transform="matrix(0.26458333,0,0,0.26458333,9.7258797,43.744042)" />
      <path
         style="fill:#ffffff;fill-opacity:0;stroke:#000000;stroke-width:1.13385828;stroke-dasharray:none"
         d="m 902.88326,42.204527 c -1.35367,-4.874331 -1.31985,-16.028064 0.0653,-21.528929 1.97876,-7.858386 3.74891,-5.105638 4.55235,7.079333 0.52436,7.952384 -1.01924,18.151748 -2.74714,18.151748 -0.4633,0 -1.30503,-1.665969 -1.8705,-3.702152 z"
         id="path1261"
         transform="matrix(0.26458333,0,0,0.26458333,9.7258797,43.744042)" />
      <path
         style="fill:#ffffff;fill-opacity:0;stroke:#000000;stroke-width:1.13385828;stroke-dasharray:none"
         d="m 903.36602,37.444771 c -0.74755,-4.985017 0.2587,-17.206343 1.4167,-17.206343 1.11738,0 1.92581,10.172825 1.29452,16.289467 -0.30823,2.986402 -0.89207,5.429822 -1.29744,5.429822 -0.40536,0 -1.04157,-2.030826 -1.41378,-4.512946 z"
         id="path1263"
         transform="matrix(0.26458333,0,0,0.26458333,9.7258797,43.744042)" />
      <path
         style="fill:#ffffff;fill-opacity:0;stroke:#000000;stroke-width:1.13385828;stroke-dasharray:none"
         d="m 900.93056,40.723666 c 0.0881,-0.678727 0.0764,-1.900437 -0.0261,-2.714911 -0.13723,-1.09047 -0.37885,-0.990694 -0.91651,0.378477 -0.40158,1.022635 -0.70355,-1.949369 -0.67104,-6.604452 0.0421,-6.028123 0.31612,-7.841657 0.95222,-6.301919 0.84989,2.057258 0.92338,2.018554 1.51874,-0.799851 l 0.62564,-2.961721 0.7528,2.468101 c 1.11629,3.659792 0.99932,11.955192 -0.2123,15.055416 -1.08946,2.787667 -2.30904,3.680218 -2.02344,1.48086 z m 1.08275,-8.638353 c -0.48519,-5.087697 -1.15645,-5.087697 -1.15645,0 0,2.171929 0.34494,3.948962 0.76652,3.948962 0.42159,0 0.59706,-1.777033 0.38993,-3.948962 z"
         id="path1273"
         transform="matrix(0.26458333,0,0,0.26458333,9.7258797,43.744042)" />
      <path
         style="fill:#ffffff;fill-opacity:0;stroke:#000000;stroke-width:1.13385828;stroke-dasharray:none"
         d="m 901.35372,39.489616 c 0.42019,-3.152139 0.32999,-3.50075 -0.44703,-1.727671 -0.53539,1.22171 -1.20988,2.221291 -1.49887,2.221291 -0.28899,0 -0.49036,-3.887259 -0.4475,-8.638353 0.0429,-4.751095 0.30202,-8.083031 0.57589,-7.404303 0.73791,1.828726 2.30561,1.495604 2.32301,-0.493621 0.0129,-1.476464 0.15427,-1.512351 0.97213,-0.24681 1.51245,2.340363 1.12694,14.947945 -0.54339,17.770328 -1.428,2.41292 -1.44888,2.379811 -0.93424,-1.480861 z m 1.47763,-9.378784 c 0,-1.628946 -0.36732,-2.961721 -0.81626,-2.961721 -0.44894,0 -0.62065,1.332775 -0.38157,2.961721 0.23908,1.628947 0.60639,2.961721 0.81626,2.961721 0.20986,0 0.38157,-1.332774 0.38157,-2.961721 z"
         id="path1275"
         transform="matrix(0.26458333,0,0,0.26458333,9.7258797,43.744042)" />
      <path
         style="fill:#ffffff;fill-opacity:0;stroke:#000000;stroke-width:1.13385828;stroke-dasharray:none"
         d="m 900.85686,41.522361 c 0,-0.846518 -0.44425,-1.539125 -0.98724,-1.539125 -0.58044,0 -0.98724,-3.445013 -0.98724,-8.360559 0,-7.05389 0.2332,-8.271074 1.49206,-7.788003 1.12434,0.43145 1.32209,0.119684 0.8024,-1.265035 -0.60817,-1.620472 -0.49285,-1.6775 0.97604,-0.482658 1.17384,0.954835 1.66571,2.864307 1.66571,6.466425 0,2.81132 0.55532,5.709776 1.23405,6.441012 0.73341,0.79015 0.77732,1.074013 0.10825,0.699707 -0.7071,-0.395574 -1.36387,0.639205 -1.76591,2.782258 -0.66059,3.521242 -2.53812,5.774451 -2.53812,3.045978 z"
         id="path1277"
         transform="matrix(0.26458333,0,0,0.26458333,9.7258797,43.744042)" />
      <path
         style="fill:#ffffff;fill-opacity:0;stroke:#000000;stroke-width:1.13385828;stroke-dasharray:none"
         d="m 912.37981,36.142254 c -0.36481,-1.824081 -0.60913,-4.926947 -0.54291,-6.895257 0.0912,-2.711497 0.32986,-2.143298 0.98479,2.344696 0.94702,6.48946 0.61981,9.859025 -0.44188,4.550561 z"
         id="path1279"
         transform="matrix(0.26458333,0,0,0.26458333,9.7258797,43.744042)" />
      <path
         style="fill:#ffffff;fill-opacity:0;stroke:#000000;stroke-width:1.13385828;stroke-dasharray:none"
         d="m 908.03644,24.18739 c 0,-2.44342 0.19252,-3.443001 0.42784,-2.221291 0.23531,1.22171 0.23531,3.220872 0,4.442582 -0.23532,1.22171 -0.42784,0.222129 -0.42784,-2.221291 z"
         id="path1283"
         transform="matrix(0.26458333,0,0,0.26458333,9.7258797,43.744042)" />
      <path
         style="fill:#ffffff;fill-opacity:0;stroke:#000000;stroke-width:1.13385828;stroke-dasharray:none"
         d="m 906.23029,37.357492 c -1.17439,-1.861793 -0.1288,-13.162864 1.47199,-15.909686 0.80702,-1.384785 1.01104,-1.057352 1.09188,1.752343 0.0668,2.32145 0.32169,2.894542 0.7768,1.746401 0.37256,-0.939918 0.70203,1.94776 0.73216,6.417062 0.0513,7.614957 -0.0112,7.866449 -0.99359,3.998899 -1.49854,-5.899338 -2.84157,-6.602819 -2.01586,-1.055907 0.75083,5.04386 0.55257,5.612699 -1.06338,3.050888 z"
         id="path1287"
         transform="matrix(0.26458333,0,0,0.26458333,9.7258797,43.744042)" />
      <path
         style="fill:#ffffff;fill-opacity:0;stroke:#000000;stroke-width:1.13385828;stroke-dasharray:none"
         d="m 906.51208,38.453984 c -1.74002,-3.320952 -0.51134,-15.897625 1.77203,-18.138271 1.45396,-1.426757 1.52861,-1.316798 0.88528,1.304015 -0.50043,2.038674 -0.3771,2.66101 0.42866,2.163027 0.81773,-0.505384 1.109,1.574142 1.05104,7.503864 -0.0774,7.916825 -0.13062,8.099673 -1.52575,5.241276 l -1.44557,-2.961721 0.47644,3.702151 c 0.55951,4.347658 0.16417,4.633104 -1.64213,1.185659 z m 2.24271,-9.824012 c 0,-0.814474 -0.1746,-1.480861 -0.388,-1.480861 -0.2134,0 -0.64371,0.666387 -0.95625,1.480861 -0.31255,0.814473 -0.13795,1.48086 0.38799,1.48086 0.52594,0 0.95626,-0.666387 0.95626,-1.48086 z"
         id="path1289"
         transform="matrix(0.26458333,0,0,0.26458333,9.7258797,43.744042)" />
    </g>
    <g
       id="g1872"
       inkscape:label="luceSpenta"
       transform="translate(-100.25873,-0.31720591)"
       style="fill:none;stroke:#000000;stroke-opacity:1;stroke-width:0.3;stroke-dasharray:none">
      <ellipse
         style="fill:none;fill-opacity:0;stroke:#000000;stroke-width:0.3;stroke-opacity:1;stroke-dasharray:none"
         id="path234-0"
         cx="113.91041"
         cy="74.305305"
         rx="3.5262992"
         ry="7.705617" />
      <ellipse
         style="fill:none;fill-opacity:0;stroke:#000000;stroke-width:0.3;stroke-opacity:1;stroke-dasharray:none"
         id="path234-4-1"
         cx="349.59384"
         cy="74.305305"
         rx="3.5262992"
         ry="7.705617" />
      <path
         style="fill:none;fill-opacity:0;stroke:#000000;stroke-width:0.3;stroke-opacity:1;stroke-dasharray:none"
         d="m 113.143,81.470756 c -2.50008,-1.458812 -3.14803,-9.705557 -1.03163,-13.12996 0.75415,-1.220253 1.72722,-1.635339 2.55782,-1.091108 2.91857,1.912321 3.23325,10.874457 0.47855,13.629157 -0.90313,0.903135 -1.28045,1.014541 -2.00474,0.591911 z"
         id="path1215-1" />
      <path
         style="fill:none;fill-opacity:0;stroke:#000000;stroke-width:0.3;stroke-opacity:1;stroke-dasharray:none"
         d="m 112.95238,80.762473 c -2.62544,-2.625439 -2.18232,-12.270413 0.60883,-13.25201 0.65986,-0.232059 0.8099,-0.16889 1.46625,0.61731 1.12761,1.350696 1.63616,3.651754 1.51721,6.865043 -0.0881,2.379573 -0.19653,2.904609 -0.87965,4.258813 -0.42855,0.849547 -1.04047,1.710767 -1.35982,1.913823 -0.53214,0.33835 -0.64516,0.304684 -1.35282,-0.402979 z"
         id="path1217-0" />
      <path
         style="fill:none;fill-opacity:0;stroke:#000000;stroke-width:0.3;stroke-opacity:1;stroke-dasharray:none"
         d="m 112.92963,80.126783 c -1.32318,-2.149461 -1.7495,-6.732576 -0.89419,-9.612741 0.51711,-1.741273 1.74763,-3.098164 2.35358,-2.595272 2.04677,1.698674 2.484,8.029718 0.78163,11.318239 -0.9738,1.881139 -1.50172,2.090742 -2.24102,0.889774 z"
         id="path1219-8" />
      <path
         style="fill:none;fill-opacity:0;stroke:#000000;stroke-width:0.3;stroke-opacity:1;stroke-dasharray:none"
         d="m 112.93003,79.325354 c -1.46062,-3.310489 -1.25251,-8.53299 0.42042,-10.550483 l 0.6192,-0.746735 0.52099,0.613679 c 1.75562,2.067966 1.73,8.582338 -0.0436,11.075351 -0.28107,0.395076 -0.62718,0.71832 -0.76914,0.71832 -0.14195,0 -0.47851,-0.499559 -0.7479,-1.110132 z"
         id="path1221-3" />
      <path
         style="fill:none;fill-opacity:0;stroke:#000000;stroke-width:0.3;stroke-opacity:1;stroke-dasharray:none"
         d="m 112.90513,78.072341 c -0.75799,-2.495524 -0.64057,-6.598103 0.23701,-8.281055 0.31839,-0.610572 0.68065,-1.110131 0.80502,-1.110131 0.38061,0 1.0809,1.746199 1.37902,3.43862 0.20426,1.159597 0.20239,2.172582 -0.007,3.651316 -0.28324,2.00287 -1.11308,4.14198 -1.60683,4.14198 -0.13661,0 -0.49998,-0.828328 -0.80749,-1.84073 z"
         id="path1223-8" />
      <path
         style="fill:none;fill-opacity:0;stroke:#000000;stroke-width:0.3;stroke-opacity:1;stroke-dasharray:none"
         d="m 113.49183,78.726884 c -0.94398,-2.071816 -0.97469,-6.606056 -0.0583,-8.609089 l 0.47801,-1.044829 0.46478,1.044829 c 0.75451,1.696141 0.82094,5.188227 0.14127,7.425896 -0.30855,1.015831 -0.59752,1.846965 -0.64216,1.846965 -0.0446,0 -0.21725,-0.298697 -0.38359,-0.663772 z"
         id="path1225-1" />
      <path
         style="fill:none;fill-opacity:0;stroke:#000000;stroke-width:0.3;stroke-opacity:1;stroke-dasharray:none"
         d="m 113.49981,77.511839 c -0.39699,-1.560642 -0.36874,-5.250851 0.0506,-6.610422 l 0.32227,-1.044829 0.36023,1.044829 c 0.45765,1.327405 0.42551,5.106522 -0.0567,6.660788 l -0.36463,1.175433 z"
         id="path1227-4" />
      <path
         style="fill:none;fill-opacity:0;stroke:#000000;stroke-width:0.3;stroke-opacity:1;stroke-dasharray:none"
         d="m 113.63077,75.984156 c -0.21649,-1.999989 0.0525,-5.349159 0.36536,-4.549213 0.24408,0.624074 0.24218,4.393796 -0.003,5.474243 -0.14804,0.653036 -0.20847,0.498884 -0.36259,-0.92503 z"
         id="path1229-0" />
      <path
         style="fill:none;fill-opacity:0;stroke:#000000;stroke-width:0.3;stroke-opacity:1;stroke-dasharray:none"
         d="m 114.24201,76.795755 c -0.14871,-0.277883 -0.25469,-1.012529 -0.23549,-1.632546 l 0.0349,-1.127303 0.18624,1.175433 c 0.10243,0.646488 0.27562,1.381133 0.38486,1.632546 0.26995,0.62129 -0.0333,0.581894 -0.37051,-0.04813 z"
         id="path1231-7" />
      <path
         style="fill:none;fill-opacity:0;stroke:#000000;stroke-width:0.3;stroke-opacity:1;stroke-dasharray:none"
         d="m 113.83455,76.778583 c 0.0715,-0.35916 0.14153,-1.123192 0.15571,-1.697848 l 0.0258,-1.044829 0.35852,1.43664 c 0.45702,1.831288 0.45815,1.956721 0.0143,1.588325 -0.28126,-0.233422 -0.40334,-0.225678 -0.52531,0.03332 -0.0874,0.185576 -0.10043,0.04355 -0.029,-0.315607 z"
         id="path1233-1" />
      <path
         style="fill:none;fill-opacity:0;stroke:#000000;stroke-width:0.3;stroke-opacity:1;stroke-dasharray:none"
         d="m 113.83408,74.290319 c 0.004,-1.759365 0.11012,-2.908728 0.26814,-2.909383 0.14966,-6.08e-4 0.26121,0.789148 0.26121,1.849359 0,1.017742 0.0974,2.343388 0.21638,2.94588 0.19288,0.976427 0.16374,1.091475 -0.26814,1.058942 -0.44115,-0.03323 -0.4839,-0.296856 -0.47759,-2.944798 z"
         id="path1235-1" />
      <path
         style="fill:none;fill-opacity:0;stroke:#000000;stroke-width:0.3;stroke-opacity:1;stroke-dasharray:none"
         d="m 348.69436,81.194417 c -1.38969,-1.093132 -2.25159,-3.772188 -2.24412,-6.975463 0.007,-3.208365 0.91509,-5.817005 2.41209,-6.932835 0.71809,-0.535249 0.71854,-0.535254 1.43664,-0.01563 0.39508,0.285881 1.06132,1.200889 1.48054,2.033351 0.65311,1.296905 0.77913,1.893725 0.88033,4.169301 0.17702,3.980145 -0.84279,7.236389 -2.50377,7.994519 -0.75849,0.346207 -0.64793,0.366874 -1.46171,-0.27324 z"
         id="path1237-8" />
      <path
         style="fill:none;fill-opacity:0;stroke:#000000;stroke-width:0.3;stroke-opacity:1;stroke-dasharray:none"
         d="m 348.30115,80.169455 c -1.01305,-1.398465 -1.45275,-3.284819 -1.42971,-6.133549 0.0209,-2.586368 0.513,-4.403414 1.57392,-5.811864 0.794,-1.054086 1.45929,-1.077608 2.17194,-0.07679 1.26307,1.773829 1.64024,3.112093 1.65425,5.869709 0.0154,3.023999 -0.49973,5.163754 -1.54093,6.401155 -0.90484,1.075335 -1.51566,1.012816 -2.42947,-0.248661 z"
         id="path1239-1" />
      <path
         style="fill:none;fill-opacity:0;stroke:#000000;stroke-width:0.3;stroke-opacity:1;stroke-dasharray:none"
         d="m 348.52648,79.847769 c -0.98026,-1.587875 -1.36221,-3.473414 -1.25322,-6.186769 0.0866,-2.156119 0.21442,-2.749933 0.87786,-4.078215 0.6338,-1.268935 0.89497,-1.554649 1.42108,-1.554649 0.52274,0 0.7922,0.288683 1.42568,1.527342 0.65976,1.290067 0.79743,1.900581 0.88619,3.929887 0.22227,5.082006 -1.79186,8.898647 -3.35759,6.362404 z"
         id="path1241-9" />
      <path
         style="fill:none;fill-opacity:0;stroke:#000000;stroke-width:0.3;stroke-opacity:1;stroke-dasharray:none"
         d="m 348.54685,79.151075 c -0.78172,-1.532305 -1.13831,-4.324416 -0.83334,-6.525118 0.2729,-1.96925 1.23783,-4.075406 1.86714,-4.075406 0.61547,0 1.58679,2.080041 1.85468,3.971732 0.46243,3.265339 -0.6008,7.651995 -1.85468,7.651995 -0.33232,0 -0.69486,-0.358823 -1.0338,-1.023203 z"
         id="path1243-5" />
      <path
         style="fill:none;fill-opacity:0;stroke:#000000;stroke-width:0.3;stroke-opacity:1;stroke-dasharray:none"
         d="m 348.95067,79.064147 c -1.14975,-1.774454 -1.24215,-6.64193 -0.16858,-8.88105 0.32719,-0.682404 0.68654,-1.240735 0.79856,-1.240735 0.53228,0 1.39251,2.579527 1.51208,4.534244 0.17656,2.886265 -0.62878,6.175258 -1.51208,6.175258 -0.13704,0 -0.42053,-0.264473 -0.62998,-0.587717 z"
         id="path1257-6" />
      <path
         style="fill:none;fill-opacity:0;stroke:#000000;stroke-width:0.3;stroke-opacity:1;stroke-dasharray:none"
         d="m 349.02989,78.411129 c -0.89483,-2.323661 -0.85672,-5.786089 0.087,-7.901523 l 0.52435,-1.175433 0.34289,0.783622 c 0.66958,1.530259 0.94915,4.081253 0.65148,5.944583 -0.48122,3.012321 -1.03704,3.825367 -1.60568,2.348751 z"
         id="path1259-6" />
      <path
         style="fill:none;fill-opacity:0;stroke:#000000;stroke-width:0.3;stroke-opacity:1;stroke-dasharray:none"
         d="m 349.07197,77.366299 c -0.35816,-1.289666 -0.34921,-4.240758 0.0173,-5.696195 0.52354,-2.079198 0.9919,-1.350867 1.20447,1.873073 0.13874,2.104068 -0.26967,4.80265 -0.72684,4.80265 -0.12259,0 -0.34529,-0.440788 -0.49491,-0.979528 z"
         id="path1261-9" />
      <path
         style="fill:none;fill-opacity:0;stroke:#000000;stroke-width:0.3;stroke-opacity:1;stroke-dasharray:none"
         d="m 349.1997,76.106947 c -0.19779,-1.318952 0.0684,-4.552511 0.37483,-4.552511 0.29565,0 0.50954,2.69156 0.34251,4.309921 -0.0815,0.790152 -0.23602,1.43664 -0.34328,1.43664 -0.10725,0 -0.27558,-0.537322 -0.37406,-1.19405 z"
         id="path1263-9" />
      <path
         style="fill:none;fill-opacity:0;stroke:#000000;stroke-width:0.3;stroke-opacity:1;stroke-dasharray:none"
         d="m 348.55532,76.974488 c 0.0233,-0.17958 0.0202,-0.502824 -0.007,-0.71832 -0.0363,-0.28852 -0.10024,-0.262121 -0.24249,0.100139 -0.10625,0.270572 -0.18615,-0.515771 -0.17755,-1.747428 0.0111,-1.594941 0.0836,-2.074772 0.25194,-1.667383 0.22487,0.544316 0.24432,0.534076 0.40184,-0.211627 l 0.16553,-0.783622 0.19918,0.653018 c 0.29535,0.96832 0.2644,3.163145 -0.0562,3.983412 -0.28825,0.737571 -0.61093,0.973725 -0.53537,0.391811 z m 0.28648,-2.285564 c -0.12838,-1.34612 -0.30598,-1.34612 -0.30598,0 0,0.574656 0.0913,1.044829 0.20281,1.044829 0.11154,0 0.15797,-0.470173 0.10317,-1.044829 z"
         id="path1273-2" />
      <path
         style="fill:none;fill-opacity:0;stroke:#000000;stroke-width:0.3;stroke-opacity:1;stroke-dasharray:none"
         d="m 348.66728,76.647979 c 0.11117,-0.834003 0.0873,-0.92624 -0.11828,-0.457113 -0.14165,0.323244 -0.32011,0.587717 -0.39657,0.587717 -0.0765,0 -0.12975,-1.028504 -0.1184,-2.285564 0.0114,-1.257061 0.0799,-2.138636 0.15237,-1.959056 0.19523,0.483851 0.61002,0.395712 0.61463,-0.130604 0.003,-0.390647 0.0408,-0.400142 0.25721,-0.0653 0.40016,0.619221 0.29816,3.954977 -0.14378,4.701732 -0.37782,0.638419 -0.38335,0.629659 -0.24718,-0.391812 z m 0.39096,-2.48147 c 0,-0.430992 -0.0972,-0.783622 -0.21597,-0.783622 -0.11879,0 -0.16422,0.35263 -0.10096,0.783622 0.0633,0.430992 0.16044,0.783622 0.21597,0.783622 0.0555,0 0.10096,-0.35263 0.10096,-0.783622 z"
         id="path1275-0" />
      <path
         style="fill:none;fill-opacity:0;stroke:#000000;stroke-width:0.3;stroke-opacity:1;stroke-dasharray:none"
         d="m 348.53582,77.18581 c 0,-0.223975 -0.11754,-0.407227 -0.26121,-0.407227 -0.15357,0 -0.26121,-0.911493 -0.26121,-2.212065 0,-1.866342 0.0617,-2.188388 0.39478,-2.060576 0.29748,0.114155 0.3498,0.03167 0.2123,-0.334707 -0.16091,-0.42875 -0.1304,-0.443838 0.25824,-0.127703 0.31058,0.252633 0.44072,0.757848 0.44072,1.710908 0,0.743829 0.14693,1.510712 0.32651,1.704185 0.19405,0.20906 0.20567,0.284166 0.0286,0.18513 -0.18708,-0.104662 -0.36085,0.169123 -0.46723,0.73614 -0.17478,0.931661 -0.67154,1.527823 -0.67154,0.805915 z"
         id="path1277-0" />
      <path
         style="fill:none;fill-opacity:0;stroke:#000000;stroke-width:0.3;stroke-opacity:1;stroke-dasharray:none"
         d="m 351.5846,75.762323 c -0.0965,-0.482622 -0.16117,-1.303588 -0.14365,-1.82437 0.0241,-0.717417 0.0873,-0.567081 0.26056,0.620367 0.25057,1.717003 0.16399,2.608534 -0.11691,1.204003 z"
         id="path1279-3" />
      <path
         style="fill:none;fill-opacity:0;stroke:#000000;stroke-width:0.3;stroke-opacity:1;stroke-dasharray:none"
         d="m 350.43542,72.599265 c 0,-0.646488 0.0509,-0.91096 0.11319,-0.587716 0.0623,0.323244 0.0623,0.852189 0,1.175433 -0.0623,0.323244 -0.11319,0.05877 -0.11319,-0.587717 z"
         id="path1283-4" />
      <path
         style="fill:none;fill-opacity:0;stroke:#000000;stroke-width:0.3;stroke-opacity:1;stroke-dasharray:none"
         d="m 349.95754,76.083855 c -0.31073,-0.4926 -0.0341,-3.482675 0.38946,-4.209438 0.21353,-0.366391 0.26751,-0.279758 0.2889,0.463641 0.0177,0.614217 0.0851,0.765847 0.20552,0.462068 0.0986,-0.248686 0.18575,0.515345 0.19372,1.697848 0.0136,2.014791 -0.003,2.081331 -0.26289,1.058042 -0.39649,-1.560867 -0.75183,-1.746996 -0.53336,-0.279375 0.19866,1.334521 0.1462,1.485026 -0.28135,0.807214 z"
         id="path1287-4" />
      <path
         style="fill:none;fill-opacity:0;stroke:#000000;stroke-width:0.3;stroke-opacity:1;stroke-dasharray:none"
         d="m 350.03209,76.373968 c -0.46038,-0.878668 -0.13529,-4.206246 0.46885,-4.799084 0.3847,-0.377496 0.40445,-0.348403 0.23423,0.345021 -0.1324,0.539399 -0.0998,0.704059 0.11342,0.572301 0.21636,-0.133717 0.29342,0.416491 0.27809,1.985397 -0.0205,2.09466 -0.0346,2.143038 -0.40369,1.386754 l -0.38247,-0.783622 0.12606,0.979528 c 0.14803,1.150317 0.0434,1.225842 -0.43449,0.313705 z m 0.59339,-2.59927 c 0,-0.215496 -0.0462,-0.391811 -0.10266,-0.391811 -0.0565,0 -0.17031,0.176315 -0.25301,0.391811 -0.0827,0.215496 -0.0365,0.391811 0.10266,0.391811 0.13915,0 0.25301,-0.176315 0.25301,-0.391811 z"
         id="path1289-8" />
      <rect
         style="fill:none;fill-opacity:0;stroke:#000000;stroke-width:0.3;stroke-opacity:1;stroke-dasharray:none"
         id="rect1291-4"
         width="235.68343"
         height="15.411234"
         x="113.91041"
         y="66.599686" />
    </g>
    <rect
       style="display:none;fill:#ffffff;fill-opacity:0;stroke:#000000;stroke-width:0.4"
       id="rect1819"
       width="250.38045"
       height="22.019005"
       x="6.3031759"
       y="40.911274"
       ry="0.26120734" />
    <rect
       style="display:none;fill:#ffffff;fill-opacity:0;stroke:#000000;stroke-width:0.4"
       id="rect1819-2"
       width="250.38045"
       height="22.019005"
       x="6.3031759"
       y="62.978596"
       ry="0.26120734" />
  </g>
</svg>
